<svg width="268" height="268" viewBox="0 0 268 268" fill="none" xmlns="http://www.w3.org/2000/svg">
<rect width="268" height="268" rx="55" fill="url(#paint0_linear_78_15)"/>
<circle cx="134.011" cy="73" r="30" fill="white"/>
<path d="M121.511 124L134.011 111L133.511 230L117.511 219.5L129.011 131L121.511 124Z" fill="white"/>
<path d="M53.6064 137.749C52.5441 123.168 52.8971 112.395 54.5111 95.5C83.5125 99.3469 104.837 107.991 112.189 146.254C112.409 147.401 112.511 148.588 112.511 149.756V177.5C83.664 177.942 70.6437 167.793 63.5109 116.5C63.4041 123.474 63.6475 130.593 64.0349 138.662C64.3332 144.874 65.0775 151.113 67.1632 156.972C75.6302 180.756 91.1719 187.104 112.511 188.5L112.511 196.5C83.4089 193.744 68.9223 186.143 57.8991 157.716C55.426 151.338 54.1034 144.572 53.6064 137.749Z" fill="white"/>
<path d="M146.5 124L134 111L134.5 230L150.5 219.5L139 131L146.5 124Z" fill="white"/>
<path d="M214.405 137.749C215.467 123.168 215.114 112.395 213.5 95.5C184.499 99.3469 163.174 107.991 155.822 146.254C155.602 147.401 155.5 148.588 155.5 149.756V177.5C184.347 177.942 197.368 167.793 204.5 116.5C204.607 123.474 204.364 130.593 203.976 138.662C203.678 144.874 202.934 151.113 200.848 156.972C192.381 180.756 176.839 187.104 155.5 188.5L155.5 196.5C184.602 193.744 199.089 186.143 210.112 157.716C212.585 151.338 213.908 144.572 214.405 137.749Z" fill="white"/>
<rect x="133" y="113" width="2" height="116" fill="white"/>
<path d="M134 230.73L133.134 229.417H134.866L134 230.73Z" fill="white"/>
<path d="M134 228.2L134.866 229.513H133.134L134 228.2Z" fill="white"/>
<defs>
<linearGradient id="paint0_linear_78_15" x1="1.49456e-05" y1="-39" x2="255" y2="313.5" gradientUnits="userSpaceOnUse">
<stop offset="0.1425" stop-color="#7AA4FF"/>
<stop offset="0.833747" stop-color="#2563EB"/>
</linearGradient>
</defs>
</svg>
